<svg width="140" height="140" viewBox="0 0 140 140" fill="none" xmlns="http://www.w3.org/2000/svg">
<g clip-path="url(#clip0_203_2)">
<rect width="140" height="140" rx="50" fill="white"/>
<rect x="-3.5" y="-3.5" width="159" height="159" rx="7.5" fill="#2B6CB0" stroke="#2B6CB0"/>
<path d="M95.0723 42.4189C90.4954 40.0101 86.4305 38.8057 82.8774 38.8057C79.3846 38.8057 76.1929 39.6187 73.3022 41.2446C70.4718 42.8104 67.9727 44.888 65.8047 47.4775C61.2279 52.9577 58.9395 59.04 58.9395 65.7246C58.9395 70.7832 60.7461 74.7578 64.3594 77.6484C67.6715 80.4186 72.5495 81.8037 78.9932 81.8037C85.4368 81.8037 91.7601 79.9067 97.9629 76.1128C104.226 72.2586 109.706 66.7484 114.403 59.582C117.113 59.4014 118.468 60.5155 118.468 62.9243C118.468 63.8879 117.715 66.1462 116.21 69.6992C114.765 73.1921 112.115 77.528 108.261 82.707C104.407 87.8861 99.9502 92.4629 94.8916 96.4375C83.9313 105.049 72.0075 109.355 59.1201 109.355C48.7018 109.355 40.5117 106.675 34.5498 101.315C28.5277 95.8955 25.5166 88.0968 25.5166 77.9194C25.5166 69.9702 28.6481 61.9909 34.9111 53.9814C40.7526 46.4538 48.1297 40.2811 57.0425 35.4634C66.1359 30.5252 74.6271 28.0562 82.5161 28.0562C86.7918 28.0562 90.104 28.7788 92.4526 30.2241C96.5477 32.7534 98.5952 35.1623 98.5952 37.4507C98.5952 39.9198 97.4209 41.5758 95.0723 42.4189Z" fill="white"/>
</g>
<defs>
<clipPath id="clip0_203_2">
<rect width="140" height="140" rx="50" fill="white"/>
</clipPath>
</defs>
</svg>
